<?xml version="1.0" standalone="no"?>
<!DOCTYPE svg PUBLIC "-//W3C//DTD SVG 20010904//EN"
 "http://www.w3.org/TR/2001/REC-SVG-20010904/DTD/svg10.dtd">
<svg version="1.0" xmlns="http://www.w3.org/2000/svg"
 width="512.000000pt" height="512.000000pt" viewBox="0 0 512.000000 512.000000"
 preserveAspectRatio="xMidYMid meet">
<metadata>
Created by potrace 1.16, written by Peter Selinger 2001-2019
</metadata>
<g transform="translate(0.000000,512.000000) scale(0.100000,-0.100000)"
fill="#000000" stroke="none">
<path d="M0 2560 l0 -2560 2560 0 2560 0 0 2560 0 2560 -2560 0 -2560 0 0
-2560z m4710 0 l0 -2150 -2150 0 -2150 0 0 2150 0 2150 2150 0 2150 0 0 -2150z"/>
<path d="M2745 3925 c-16 -5 -34 -16 -38 -23 -5 -7 -13 -9 -20 -5 -17 10 -184
5 -206 -7 -16 -8 -20 -5 -25 15 -8 31 -22 32 -37 3 -6 -13 -13 -24 -14 -26 -1
-1 -15 4 -31 13 -37 19 -75 19 -100 0 -10 -8 -41 -15 -67 -15 -32 0 -46 -4
-41 -11 4 -7 -1 -7 -16 1 -35 18 -42 1 -56 -122 l-12 -113 -1 110 c-2 101 -3
108 -17 90 -15 -19 -15 -19 -9 8 8 32 5 33 -60 9 -76 -27 -155 -71 -155 -85 0
-7 -9 -20 -19 -29 -24 -21 -38 -85 -23 -108 9 -14 -1 -29 -53 -86 -56 -60
-113 -144 -99 -144 3 0 24 9 47 21 l42 21 -36 -33 c-19 -19 -56 -52 -81 -74
-39 -35 -47 -48 -53 -90 -5 -29 -18 -62 -32 -79 -13 -15 -30 -43 -37 -61 -8
-18 -23 -36 -34 -39 -18 -6 -50 -62 -41 -70 2 -2 18 -8 34 -14 l30 -10 -36 -1
c-20 -1 -42 -8 -49 -16 -11 -13 -6 -22 30 -55 24 -22 49 -40 56 -40 6 0 17 24
24 53 6 28 15 70 20 92 5 22 12 64 15 93 6 58 22 92 43 92 9 0 11 -7 7 -20 -3
-11 -2 -20 3 -20 6 0 12 5 14 12 2 6 9 9 16 7 9 -3 8 -11 -3 -33 -8 -15 -15
-46 -15 -68 0 -24 -9 -55 -21 -75 -12 -19 -18 -41 -15 -50 4 -9 2 -20 -5 -23
-6 -4 -9 -16 -7 -26 5 -19 5 -19 13 0 4 10 23 33 41 50 27 25 34 40 36 76 3
38 7 47 31 57 17 8 28 20 29 35 3 55 16 88 34 88 17 0 60 83 69 136 4 21 13
46 20 54 15 18 47 91 42 97 -3 2 -17 -1 -32 -7 -15 -6 -30 -9 -32 -6 -3 2 12
10 31 17 23 8 36 19 36 31 0 10 7 18 15 18 8 0 15 7 15 17 0 9 3 14 6 10 3 -3
15 4 26 15 15 15 23 17 31 9 19 -19 75 -13 87 9 10 19 31 28 29 13 -5 -31 2
-32 234 -27 127 2 237 4 242 3 6 -1 136 -3 290 -5 154 -2 285 -6 292 -8 18 -7
63 -82 63 -106 0 -11 4 -20 9 -20 24 0 151 -206 151 -245 0 -11 24 -46 54 -77
29 -30 59 -73 66 -94 7 -22 21 -45 30 -51 21 -15 70 -96 70 -116 0 -7 10 -19
23 -26 12 -7 29 -26 37 -44 11 -24 23 -33 45 -35 l29 -4 -23 -17 -23 -17 22
-40 c12 -21 29 -45 38 -52 12 -9 13 -15 4 -24 -7 -7 -12 -20 -12 -29 0 -10 -4
-19 -9 -21 -5 -1 -18 -23 -30 -47 -19 -42 -20 -45 -3 -57 24 -18 97 -18 112 1
17 21 28 285 11 285 -7 0 -11 24 -10 69 1 38 -1 73 -4 78 -3 4 -8 35 -11 68
-11 103 -48 212 -112 328 -25 45 -26 49 -9 61 15 11 16 16 5 37 -8 13 -11 26
-9 29 2 3 -8 6 -23 8 -21 2 -35 18 -68 70 -22 37 -70 112 -105 167 -35 55 -64
105 -65 112 0 6 -6 18 -13 25 -7 7 -21 25 -31 41 -21 31 -109 79 -140 76 -43
-3 -65 1 -79 15 -12 13 -17 13 -38 -2 -13 -9 -40 -18 -59 -19 -67 -4 -104 -2
-115 6 -5 5 -34 4 -64 -2 -49 -10 -55 -10 -70 9 -13 17 -21 18 -46 9z m-276
-131 c1 -17 -4 -20 -28 -16 -15 2 -44 -4 -62 -13 -28 -13 -31 -13 -15 0 11 8
23 15 28 15 13 0 9 22 -9 42 -15 17 -15 18 5 18 12 0 22 5 22 11 0 6 7 9 15 6
8 -4 18 -1 22 6 8 12 19 -25 22 -69z m-474 -148 c-22 -52 -29 -40 -8 14 9 23
19 38 20 33 2 -5 -4 -26 -12 -47z m-215 -190 c0 -2 -7 -7 -16 -10 -8 -3 -12
-2 -9 4 6 10 25 14 25 6z"/>
<path d="M1793 3884 c-18 -8 -33 -21 -33 -29 0 -8 -11 -17 -24 -21 -14 -3 -27
-11 -29 -17 -3 -7 -12 -29 -21 -49 l-16 -37 63 34 c34 18 63 41 65 49 2 9 7
14 12 11 5 -3 15 3 22 12 7 10 25 24 41 30 15 7 27 16 27 20 0 14 -74 11 -107
-3z"/>
<path d="M1913 3859 c-58 -37 -38 -41 22 -4 22 13 33 24 25 25 -8 0 -30 -10
-47 -21z"/>
<path d="M1771 3726 c-6 -8 -26 -20 -42 -27 -27 -11 -33 -10 -41 4 -8 15 -11
16 -24 2 -9 -8 -22 -15 -30 -15 -8 0 -14 -9 -14 -19 0 -30 -35 -104 -59 -125
-17 -16 -20 -26 -15 -54 4 -23 3 -33 -3 -29 -13 8 -36 -44 -31 -70 2 -10 12
-19 22 -21 15 -3 18 0 13 17 -5 21 -3 22 45 25 20 1 41 29 125 172 65 109 97
192 54 140z m-81 -61 c0 -8 -4 -15 -9 -15 -5 0 -11 7 -15 15 -3 9 0 15 9 15 8
0 15 -7 15 -15z"/>
<path d="M1492 3352 c-20 -3 -21 -5 -7 -19 14 -14 14 -17 -4 -30 -29 -19 -45
-86 -29 -113 7 -11 15 -20 18 -20 3 0 18 21 33 47 22 36 31 43 38 32 6 -10 8
-5 8 16 -1 17 1 44 4 61 6 34 3 35 -61 26z"/>
<path d="M1408 3233 c-9 -10 -19 -29 -23 -42 -4 -14 -16 -38 -26 -55 -24 -39
-24 -46 1 -46 22 0 40 27 40 62 1 13 7 40 14 61 15 42 15 44 -6 20z"/>
<path d="M2597 3244 c-8 -9 -1 -44 23 -109 10 -27 21 -62 24 -77 4 -16 15 -29
29 -33 45 -14 107 -49 107 -61 0 -7 4 -16 10 -19 12 -8 89 37 120 70 13 14 30
25 37 25 8 0 27 7 44 15 25 14 28 19 19 36 -8 14 -17 18 -31 14 -13 -4 -19 -2
-19 8 0 14 -60 56 -120 84 -35 16 -88 31 -140 38 -25 3 -56 8 -70 11 -14 3
-29 2 -33 -2z m293 -134 c0 -5 -8 -10 -17 -10 -15 0 -16 2 -3 10 19 12 20 12
20 0z"/>
<path d="M2408 3218 c-16 -5 -28 -14 -28 -19 0 -5 -12 -14 -26 -19 -14 -6 -28
-19 -31 -30 -6 -23 -14 -25 -31 -8 -9 9 -20 7 -49 -8 -52 -26 -60 -35 -59 -66
2 -25 39 -67 62 -68 20 0 43 26 47 55 l4 30 2 -32 c0 -22 6 -33 16 -33 14 0
65 48 65 62 0 5 9 17 20 28 10 10 31 42 45 70 28 55 23 60 -37 38z"/>
<path d="M2525 3184 c-24 -22 -38 -28 -57 -25 -4 0 -5 -5 -2 -12 2 -7 -7 -24
-21 -37 -14 -13 -25 -34 -25 -47 0 -26 -41 -74 -48 -55 -6 20 -22 3 -22 -24 0
-32 24 -31 68 3 28 21 53 28 123 36 49 6 89 15 89 20 0 23 -55 157 -66 161 -7
3 -24 -6 -39 -20z"/>
<path d="M3770 3136 c0 -9 5 -16 10 -16 6 0 10 4 10 9 0 6 -4 13 -10 16 -5 3
-10 -1 -10 -9z"/>
<path d="M1563 3071 c-1 -44 -1 -45 12 -21 20 38 22 62 5 65 -11 2 -15 -9 -17
-44z"/>
<path d="M3786 3101 c-9 -14 13 -143 26 -156 7 -7 8 16 4 70 -7 78 -17 107
-30 86z"/>
<path d="M2995 3032 c-22 -15 -70 -45 -107 -65 -77 -43 -81 -47 -72 -82 5 -20
22 -34 67 -55 33 -16 64 -27 69 -24 13 8 75 -23 82 -41 3 -8 14 -15 24 -15 11
0 35 -7 55 -15 l35 -14 1 112 c2 121 -1 128 -69 200 -31 33 -36 33 -85 -1z"/>
<path d="M3831 3018 c1 -24 4 -54 8 -68 7 -25 7 -25 14 6 5 29 -8 104 -18 104
-3 0 -5 -19 -4 -42z"/>
<path d="M2106 3038 c-22 -70 -15 -78 61 -70 40 4 41 5 30 25 -23 42 -40 57
-64 57 -13 0 -25 -6 -27 -12z"/>
<path d="M1538 2970 c-10 -23 -6 -52 5 -41 5 5 7 19 5 32 -3 17 -6 20 -10 9z"/>
<path d="M3876 2960 c-2 -8 -6 -31 -8 -51 -4 -44 12 -43 29 1 8 22 8 33 -2 47
-11 15 -14 16 -19 3z"/>
<path d="M2050 2935 c-14 -36 -13 -45 4 -45 29 0 116 24 116 31 0 12 -30 26
-73 34 -33 7 -38 5 -47 -20z"/>
<path d="M3921 2904 c-6 -14 -11 -30 -11 -37 0 -7 -8 -24 -17 -37 -24 -35 -25
-50 -2 -78 23 -30 19 -38 -10 -21 -11 7 -24 10 -28 5 -13 -13 -9 -129 5 -134
8 -2 12 7 12 27 0 36 15 39 46 10 22 -21 24 -21 41 -4 17 17 18 17 29 -11 14
-33 11 -42 -10 -25 -11 9 -15 8 -20 -5 -9 -23 -8 -24 14 -24 11 0 20 -7 20
-15 0 -21 8 -19 36 8 17 15 24 33 24 60 0 20 5 37 10 37 14 0 2 48 -20 80 -61
90 -90 142 -90 159 0 30 -16 33 -29 5z"/>
<path d="M1322 2848 c-34 -56 -34 -72 1 -59 12 5 31 5 42 1 28 -10 35 -4 35
33 0 20 -9 40 -23 54 l-23 22 -32 -51z"/>
<path d="M2130 2882 c-74 -4 -90 -10 -90 -35 1 -22 21 -57 34 -57 3 0 6 6 6
14 0 9 12 16 31 18 19 2 36 11 43 23 6 11 15 23 21 27 15 11 4 13 -45 10z"/>
<path d="M2310 2847 c0 -33 20 -97 30 -97 13 0 40 42 40 61 0 9 -16 26 -35 38
l-35 20 0 -22z"/>
<path d="M2250 2830 c0 -5 -3 -9 -7 -8 -22 7 -87 -69 -98 -115 -9 -36 11 -42
30 -10 16 28 16 9 1 -28 -7 -16 16 -49 35 -49 5 0 30 21 55 46 45 44 46 47 39
92 -4 26 -11 55 -16 65 -10 18 -39 24 -39 7z m-49 -93 c-10 -9 -11 -8 -5 6 3
10 9 15 12 12 3 -3 0 -11 -7 -18z"/>
<path d="M2172 2808 c-14 -14 -16 -42 -3 -34 7 5 23 46 17 46 -1 0 -7 -5 -14
-12z"/>
<path d="M1217 2803 c-12 -11 -8 -23 8 -23 8 0 15 7 15 15 0 16 -12 20 -23 8z"/>
<path d="M1290 2740 c0 -32 80 -184 91 -173 5 5 10 50 12 99 l2 89 -52 3 c-48
3 -53 1 -53 -18z"/>
<path d="M2365 2740 c-14 -15 -16 -29 -11 -65 9 -56 31 -60 45 -7 24 93 24 92
4 92 -11 0 -28 -9 -38 -20z"/>
<path d="M1426 2733 c2 -7 -1 -15 -6 -18 -6 -4 -10 -32 -9 -63 l0 -57 20 44
c30 67 34 91 16 91 -8 0 -17 3 -20 8 -2 4 -2 2 -1 -5z"/>
<path d="M2434 2705 c-7 -19 -14 -37 -14 -40 0 -13 28 -2 54 22 29 24 29 26
11 39 -28 20 -34 18 -51 -21z"/>
<path d="M1260 2614 c-7 -55 -19 -115 -26 -134 l-13 -35 2 39 c2 31 -2 40 -20
47 -22 8 -23 6 -23 -45 0 -72 10 -122 21 -104 5 7 9 23 9 36 0 12 4 22 9 22 4
0 6 -11 3 -25 -2 -14 -2 -25 1 -25 3 0 30 13 59 29 64 36 72 68 21 85 -17 6
-35 15 -40 19 -10 11 48 -3 63 -15 7 -5 16 -2 25 8 11 13 6 29 -32 106 l-45
90 -14 -98z"/>
<path d="M1188 2665 c-18 -24 -24 -65 -10 -65 8 1 42 65 42 80 0 17 -14 10
-32 -15z"/>
<path d="M2499 2667 c-62 -33 -115 -100 -103 -131 7 -18 95 -76 116 -76 9 0
21 -7 28 -15 7 -9 18 -14 24 -12 13 4 122 -48 131 -63 3 -6 25 -19 48 -29 27
-13 49 -32 61 -54 10 -20 27 -38 38 -40 11 -3 22 -15 25 -26 4 -18 13 -21 54
-21 54 0 60 -10 38 -67 -15 -41 -59 -61 -59 -27 0 22 -38 74 -54 74 -7 0 -31
-13 -52 -29 -54 -39 -113 -65 -140 -63 -13 1 -26 -3 -29 -8 -10 -17 -81 -11
-140 11 -71 26 -108 62 -124 121 -13 46 -14 46 -83 69 -39 12 -78 31 -89 42
-10 11 -29 21 -42 22 -14 2 -45 12 -70 23 -25 11 -48 18 -51 14 -3 -3 -6 -60
-6 -128 l0 -122 46 -56 c26 -31 50 -56 54 -56 4 0 37 -22 74 -49 66 -49 149
-85 183 -80 10 2 35 -5 56 -15 31 -15 51 -17 122 -11 97 8 135 29 135 73 1 22
2 24 10 11 5 -9 22 -20 36 -23 20 -5 25 -12 21 -26 -7 -28 29 -26 73 4 19 13
50 27 68 30 18 4 32 14 32 22 0 8 8 14 18 14 27 0 129 88 185 158 21 28 26
192 5 192 -7 0 -21 17 -31 38 -27 58 -60 101 -78 102 -9 0 -22 7 -29 15 -7 8
-18 15 -26 15 -7 0 -18 8 -23 18 -8 15 -114 73 -206 113 -11 4 -46 20 -79 34
-64 28 -127 32 -167 12z m591 -377 c0 -5 -4 -10 -10 -10 -5 0 -10 5 -10 10 0
6 5 10 10 10 6 0 10 -4 10 -10z m30 -94 c0 -2 -8 -10 -17 -17 -16 -13 -17 -12
-4 4 13 16 21 21 21 13z m-280 -176 c0 -5 -2 -10 -4 -10 -3 0 -8 5 -11 10 -3
6 -1 10 4 10 6 0 11 -4 11 -10z"/>
<path d="M1241 2655 c-1 -11 -15 -35 -31 -54 -17 -18 -30 -37 -30 -41 0 -9 25
-20 45 -20 15 0 30 72 22 111 -3 19 -5 20 -6 4z"/>
<path d="M1478 2645 c-3 -14 -1 -25 3 -25 5 0 9 11 9 25 0 14 -2 25 -4 25 -2
0 -6 -11 -8 -25z"/>
<path d="M2266 2637 c-15 -19 -24 -41 -21 -49 9 -22 54 -41 70 -28 6 5 15 7
18 3 4 -3 1 15 -7 42 -21 68 -29 72 -60 32z"/>
<path d="M3862 2558 c-12 -35 -22 -77 -22 -95 0 -27 3 -30 23 -26 22 5 22 5 2
-10 -11 -9 -15 -17 -10 -17 6 -1 29 -5 52 -9 60 -12 74 1 80 77 3 39 1 62 -5
62 -6 0 -27 18 -48 40 -21 22 -41 40 -44 40 -4 0 -16 -28 -28 -62z"/>
<path d="M1130 2601 c0 -5 -3 -16 -6 -25 -4 -11 -1 -16 10 -16 10 0 16 9 16
25 0 14 -4 25 -10 25 -5 0 -10 -4 -10 -9z"/>
<path d="M1105 2503 c1 -20 7 -39 13 -41 8 -2 8 -9 0 -22 -10 -15 -9 -27 5
-56 26 -54 38 -31 35 67 -3 83 -3 84 -30 87 -25 3 -26 1 -23 -35z"/>
<path d="M1413 2462 c-5 -4 -13 -15 -16 -26 -6 -14 -10 -16 -20 -7 -17 13 -37
-1 -108 -72 l-51 -52 37 48 c21 26 36 49 34 51 -2 2 -23 -7 -46 -21 -37 -22
-43 -30 -43 -60 0 -28 18 -71 56 -135 8 -12 34 3 34 20 0 8 3 13 6 9 3 -3 6
-22 6 -41 0 -20 4 -39 9 -42 6 -3 7 -14 4 -24 -7 -23 15 -67 55 -111 16 -19
30 -43 30 -55 0 -32 10 -54 25 -54 7 0 16 -11 19 -24 3 -13 40 -74 81 -135 50
-74 75 -121 75 -140 0 -19 7 -31 21 -37 11 -5 64 -79 117 -164 103 -165 134
-196 172 -172 12 7 35 10 55 7 19 -3 50 -7 69 -10 28 -5 36 -2 41 15 7 21 39
27 50 10 3 -5 22 -10 41 -10 20 0 43 -4 52 -9 9 -4 44 -5 77 -1 37 5 72 4 91
-3 27 -9 36 -7 60 12 24 19 36 21 79 16 27 -4 55 -12 62 -17 7 -6 19 -6 31 1
11 6 22 7 26 4 14 -15 4 14 -13 37 -16 20 -21 22 -35 11 -9 -8 -16 -9 -16 -3
0 6 5 12 12 14 8 3 8 12 1 33 -5 17 -12 28 -16 25 -3 -3 -19 8 -36 24 -29 28
-31 28 -31 9 0 -12 -3 -28 -6 -36 -5 -14 -8 -13 -25 1 -10 9 -19 21 -19 27 0
17 -62 10 -93 -10 -43 -28 -42 -12 2 23 38 31 42 43 32 118 0 7 -18 15 -38 18
-21 3 -51 8 -68 11 -16 3 -86 7 -155 8 l-124 2 -23 35 c-39 59 -47 70 -85 122
-24 31 -38 61 -38 79 0 18 -5 29 -14 29 -15 0 -67 77 -109 160 -15 30 -36 66
-46 79 l-19 25 -26 -50 c-26 -47 -26 -31 -2 31 12 31 11 65 -3 65 -13 0 -61
78 -61 99 0 11 -11 28 -24 38 -21 17 -106 144 -106 159 0 15 -38 52 -47 46z
m-31 -144 c-4 -104 -23 -133 -21 -33 1 75 7 115 18 115 3 0 5 -37 3 -82z m-12
-145 c0 -26 -21 -96 -26 -90 -8 8 8 107 17 107 5 0 9 -8 9 -17z"/>
<path d="M3652 2408 c-5 -7 -13 -24 -17 -38 -4 -14 -16 -37 -26 -52 -11 -14
-19 -33 -19 -41 0 -8 -16 -38 -35 -67 -37 -55 -47 -114 -22 -139 10 -11 8 -13
-10 -8 -32 7 -40 -8 -47 -93 -10 -135 -32 -285 -44 -307 -14 -26 -16 -53 -3
-53 5 0 21 21 36 48 15 26 47 72 71 104 24 31 44 64 44 73 0 9 8 19 19 22 18
5 41 42 41 67 0 8 17 18 38 23 31 7 38 13 40 37 2 15 15 49 29 74 14 26 26 63
28 82 2 19 8 67 14 105 6 39 11 83 11 99 0 28 0 28 -55 -25 -76 -74 -88 -74
-26 0 28 34 51 66 51 72 0 25 -100 39 -118 17z m28 -32 c0 -3 -4 -8 -10 -11
-5 -3 -10 -1 -10 4 0 6 5 11 10 11 6 0 10 -2 10 -4z m-30 -156 c0 -5 -5 -10
-11 -10 -5 0 -7 5 -4 10 3 6 8 10 11 10 2 0 4 -4 4 -10z"/>
<path d="M3833 2389 c-8 -8 -13 -41 -13 -85 0 -39 -4 -84 -9 -100 -14 -45 -22
-156 -11 -149 6 3 10 14 10 24 0 10 7 24 15 31 8 7 15 25 15 41 0 15 6 32 14
36 17 9 96 155 96 176 0 8 -14 17 -32 20 -18 4 -42 9 -53 12 -11 3 -26 0 -32
-6z"/>
<path d="M3300 1703 c0 -10 -11 -42 -25 -71 -29 -63 -30 -72 -10 -72 8 0 15
-7 15 -16 0 -10 6 -14 15 -10 8 3 15 1 15 -4 0 -14 32 -12 51 3 26 20 47 70
39 92 -11 29 -71 95 -87 95 -7 0 -13 -8 -13 -17z"/>
<path d="M3495 1618 c-26 -29 -51 -53 -56 -53 -4 0 -14 -6 -21 -13 -11 -11
-10 -12 6 -6 14 5 17 4 11 -5 -6 -10 -3 -11 13 -2 17 9 19 8 15 -9 -3 -12 -14
-25 -25 -31 -10 -5 -16 -14 -14 -18 6 -10 -52 -81 -66 -81 -5 0 -8 7 -4 15 9
24 -11 18 -32 -10 -11 -14 -25 -25 -31 -25 -15 0 -14 -17 1 -26 6 -4 14 -2 16
4 5 16 32 15 32 0 1 -21 36 -57 61 -63 20 -5 29 1 49 27 26 34 63 119 55 126
-2 2 -19 8 -37 13 -29 8 -27 8 13 4 46 -4 69 6 69 32 0 8 9 33 20 56 11 23 22
58 25 79 5 36 4 38 -24 38 -22 0 -40 -12 -76 -52z m25 -52 c0 -3 -4 -8 -10
-11 -5 -3 -10 -1 -10 4 0 6 5 11 10 11 6 0 10 -2 10 -4z"/>
<path d="M2777 1533 c-4 -3 -46 -7 -93 -7 -70 -1 -88 -4 -99 -19 -10 -14 -10
-25 -2 -48 14 -35 61 -84 75 -75 5 3 12 28 16 56 7 55 12 58 57 34 17 -8 42
-14 57 -12 23 3 27 8 30 41 3 31 0 37 -16 37 -10 0 -22 -3 -25 -7z"/>
<path d="M2884 1529 c-3 -6 -1 -16 5 -22 13 -13 65 8 56 23 -8 13 -52 13 -61
-1z"/>
<path d="M3025 1530 c-7 -11 10 -19 37 -17 14 0 15 3 7 14 -13 15 -35 17 -44
3z"/>
<path d="M3119 1533 c-10 -2 -19 -13 -22 -25 -3 -11 -10 -17 -15 -14 -6 3 -19
-2 -30 -12 -29 -24 -84 -122 -69 -122 8 0 9 -3 1 -8 -10 -6 -34 -45 -34 -55 0
-11 59 2 83 18 15 10 30 15 33 13 3 -3 -20 -20 -51 -37 -53 -30 -73 -47 -39
-34 9 3 19 1 23 -5 10 -17 76 1 75 21 -1 9 3 17 8 17 6 0 38 20 72 44 90 64
127 112 56 71 -58 -33 -37 -11 34 36 47 31 74 55 68 61 -11 11 -39 12 -70 3
-19 -6 -24 -3 -29 14 -4 17 -12 21 -42 20 -20 -1 -43 -3 -52 -6z"/>
<path d="M2545 1520 c3 -5 12 -7 20 -3 21 7 19 13 -6 13 -11 0 -18 -4 -14 -10z"/>
<path d="M3325 1467 c-26 -30 -27 -39 -1 -22 14 10 26 21 26 26 0 13 -13 11
-25 -4z"/>
<path d="M2625 1331 c-3 -5 -1 -12 5 -16 5 -3 10 1 10 9 0 18 -6 21 -15 7z"/>
<path d="M3320 1310 l-25 -8 27 -1 c15 -1 30 4 33 9 7 11 0 11 -35 0z"/>
<path d="M3183 1267 c-11 -23 -10 -25 21 -31 37 -7 96 10 96 28 0 6 -8 12 -17
12 -10 1 -34 4 -54 8 -31 7 -36 5 -46 -17z"/>
<path d="M3355 1270 c-15 -17 -16 -20 -3 -20 9 0 19 7 22 16 10 25 1 27 -19 4z"/>
<path d="M2670 1266 c0 -18 30 -30 43 -17 5 5 6 14 3 20 -10 16 -46 13 -46 -3z"/>
<path d="M3105 1260 c-3 -5 -2 -10 4 -10 5 0 13 5 16 10 3 6 2 10 -4 10 -5 0
-13 -4 -16 -10z"/>
</g>
</svg>
