<svg xmlns="http://www.w3.org/2000/svg" viewBox="0 0 140 40" width="140" height="40">
  <!-- Traced sage.is hex-S icon (from icon-512.png via potrace) -->
  <g transform="translate(2,0) scale(0.1)">
    <g transform="translate(0.000000,400.000000) scale(1,-1)" fill="#1a2055" stroke="none">
      <path d="M0 200 l0 -200 200 0 200 0 0 200 0 200 -200 0 -200 0 0 -200z m390 0 l0 -190 -190 0 -190 0 0 190 0 190 190 0 190 0 0 -190z M130 285 c-7 -8 -9 -15 -6 -15 4 0 2 -10 -4 -22 -9 -19 -7 -18 12 5 20 22 32 27 70 27 43 0 48 -3 69 -36 19 -32 21 -41 11 -67 -15 -40 -8 -46 13 -13 19 29 16 55 -15 104 -19 30 -23 32 -79 32 -40 0 -63 -5 -71 -15z M195 243 c11 -3 23 -10 27 -16 4 -6 10 -8 13 -5 13 13 -6 28 -33 27 -21 -1 -23 -2 -7 -6z M96 205 c-3 -9 5 -34 18 -58 19 -34 30 -43 56 -45 21 -2 30 0 25 7 -3 6 -14 11 -23 11 -19 0 -68 68 -64 88 4 17 -5 15 -12 -3z M190 204 c0 -4 8 -13 17 -20 24 -17 7 -31 -18 -15 -22 13 -35 9 -24 -8 3 -6 20 -11 36 -11 37 0 50 27 24 46 -20 15 -35 18 -35 8z M235 110 c-3 -5 -1 -10 4 -10 6 0 11 5 11 10 0 6 -2 10 -4 10 -3 0 -8 -4 -11 -10z"/>
    </g>
  </g>

  <!-- Sage text -->
  <text x="46" y="26" font-family="system-ui, -apple-system, 'Helvetica Neue', sans-serif" font-weight="700" font-size="19" fill="#0B1215" letter-spacing="-0.3">Sage</text>

  <!-- PB badge -->
  <rect x="102" y="9" width="28" height="19" rx="3.5" fill="#1a2055"/>
  <text x="116" y="22.5" font-family="system-ui, -apple-system, 'Helvetica Neue', sans-serif" font-weight="600" font-size="11" fill="#fff" text-anchor="middle">PB</text>
</svg>
