<?xml version="1.0" standalone="no"?>
<!DOCTYPE svg PUBLIC "-//W3C//DTD SVG 20010904//EN"
 "http://www.w3.org/TR/2001/REC-SVG-20010904/DTD/svg10.dtd">
<svg version="1.0" xmlns="http://www.w3.org/2000/svg"
 width="40.000000pt" height="40.000000pt" viewBox="0 0 40.000000 40.000000"
 preserveAspectRatio="xMidYMid meet">
<metadata>
Created by potrace 1.16, written by Peter Selinger 2001-2019
</metadata>
<g transform="translate(0.000000,40.000000) scale(0.100000,-0.100000)"
fill="#000000" stroke="none">
<path d="M0 200 l0 -200 200 0 200 0 0 200 0 200 -200 0 -200 0 0 -200z m390
0 l0 -190 -190 0 -190 0 0 190 0 190 190 0 190 0 0 -190z M130 285 c-7 -8 -9
-15 -6 -15 4 0 2 -10 -4 -22 -9 -19 -7 -18 12 5 20 22 32 27 70 27 43 0 48 -3
69 -36 19 -32 21 -41 11 -67 -15 -40 -8 -46 13 -13 19 29 16 55 -15 104 -19
30 -23 32 -79 32 -40 0 -63 -5 -71 -15z M195 243 c11 -3 23 -10 27 -16 4 -6
10 -8 13 -5 13 13 -6 28 -33 27 -21 -1 -23 -2 -7 -6z M96 205 c-3 -9 5 -34 18
-58 19 -34 30 -43 56 -45 21 -2 30 0 25 7 -3 6 -14 11 -23 11 -19 0 -68 68
-64 88 4 17 -5 15 -12 -3z M190 204 c0 -4 8 -13 17 -20 24 -17 7 -31 -18 -15
-22 13 -35 9 -24 -8 3 -6 20 -11 36 -11 37 0 50 27 24 46 -20 15 -35 18 -35 8z
M235 110 c-3 -5 -1 -10 4 -10 6 0 11 5 11 10 0 6 -2 10 -4 10 -3 0 -8 -4 -11
-10z"/>
</g>
</svg>
