<?xml version="1.0" standalone="no"?>
<!DOCTYPE svg PUBLIC "-//W3C//DTD SVG 20010904//EN"
 "http://www.w3.org/TR/2001/REC-SVG-20010904/DTD/svg10.dtd">
<svg version="1.0" xmlns="http://www.w3.org/2000/svg"
 width="32.000000pt" height="32.000000pt" viewBox="0 0 32.000000 32.000000"
 preserveAspectRatio="xMidYMid meet">
<metadata>
Created by potrace 1.16, written by Peter Selinger 2001-2019
</metadata>
<g transform="translate(0.000000,32.000000) scale(0.100000,-0.100000)"
fill="#000000" stroke="none">
<path d="M0 160 l0 -160 160 0 160 0 0 160 0 160 -160 0 -160 0 0 -160z m310
0 l0 -150 -150 0 -150 0 0 150 0 150 150 0 150 0 0 -150z M100 214 c-14 -37
-11 -43 6 -11 12 21 22 27 49 27 27 0 39 -7 61 -35 22 -29 24 -38 14 -50 -7
-9 -10 -18 -7 -21 3 -3 10 4 16 15 9 16 7 29 -9 61 -20 39 -22 40 -70 40 -45
0 -52 -3 -60 -26z M150 196 c0 -2 9 -6 20 -9 11 -3 18 -1 14 4 -5 9 -34 13
-34 5z M77 164 c-11 -11 36 -84 54 -84 13 0 9 9 -17 37 -18 20 -31 40 -28 45
6 10 0 11 -9 2z M158 158 c30 -15 28 -32 -4 -24 -17 5 -23 3 -19 -4 8 -14 42
-13 51 2 7 11 -22 39 -40 37 -6 0 -1 -5 12 -11z"/>
</g>
</svg>
